<svg width="232" height="200" viewBox="0 0 232 200" fill="none" xmlns="http://www.w3.org/2000/svg">
<path d="M210.086 94.7368H83.7343V42.1053H210.086M194.292 157.895C190.103 157.895 186.086 156.231 183.124 153.27C180.162 150.309 178.498 146.293 178.498 142.105C178.498 137.918 180.162 133.902 183.124 130.94C186.086 127.979 190.103 126.316 194.292 126.316C198.481 126.316 202.498 127.979 205.46 130.94C208.422 133.902 210.086 137.918 210.086 142.105C210.086 146.293 208.422 150.309 205.46 153.27C202.498 156.231 198.481 157.895 194.292 157.895ZM99.5283 157.895C95.3395 157.895 91.3222 156.231 88.3603 153.27C85.3983 150.309 83.7343 146.293 83.7343 142.105C83.7343 137.918 85.3983 133.902 88.3603 130.94C91.3222 127.979 95.3395 126.316 99.5283 126.316C103.717 126.316 107.734 127.979 110.696 130.94C113.658 133.902 115.322 137.918 115.322 142.105C115.322 146.293 113.658 150.309 110.696 153.27C107.734 156.231 103.717 157.895 99.5283 157.895ZM62.6758 147.368C62.6758 156.632 66.7822 164.947 73.2051 170.737V189.474C73.2051 192.265 74.3144 194.943 76.289 196.917C78.2636 198.891 80.9418 200 83.7343 200H94.2636C97.0562 200 99.7343 198.891 101.709 196.917C103.684 194.943 104.793 192.265 104.793 189.474V178.947H189.027V189.474C189.027 192.265 190.136 194.943 192.111 196.917C194.086 198.891 196.764 200 199.556 200H210.086C212.878 200 215.556 198.891 217.531 196.917C219.506 194.943 220.615 192.265 220.615 189.474V170.737C227.038 164.947 231.144 156.632 231.144 147.368V42.1053C231.144 5.26316 193.449 0 146.91 0C100.371 0 62.6758 5.26316 62.6758 42.1053V147.368Z" fill="#4285F4"/>
<ellipse cx="110.432" cy="70.2991" rx="10.8108" ry="10.8108" fill="#4285F4"/>
<path d="M110.408 86.8594C115.856 86.8594 120.681 88.0161 124.066 89.7822C127.555 91.6024 128.98 93.7404 128.98 95.5215C128.98 97.3027 127.555 99.4414 124.066 101.262C120.681 103.028 115.856 104.185 110.408 104.185C104.961 104.185 100.135 103.028 96.75 101.262C93.2611 99.4414 91.8359 97.3026 91.8359 95.5215C91.8361 93.7404 93.2614 91.6024 96.75 89.7822C100.135 88.0161 104.961 86.8594 110.408 86.8594Z" stroke="#4285F4" stroke-width="4.29646"/>
<path d="M87.6758 98.0087C96.0091 89.6753 112.676 79.248 131.426 98.0204" stroke="#4285F4" stroke-width="0.429646"/>
<circle cx="41.3357" cy="98.6912" r="12.5857" fill="#4285F4"/>
<path d="M16.0172 104.605C18.0309 105.154 19.3734 107.427 19.7929 108.495L26.2002 108.838C34.5296 109.113 38.2138 115.131 39.0147 118.106C40.2046 121.584 39.9681 125.581 39.7012 127.145L39.3579 133.209C39.3198 133.514 39.2435 134.147 39.2435 134.239C39.2435 134.33 41.303 134.658 42.3327 134.811C44.2549 135.085 44.5066 136.68 44.3922 137.442C44.3007 140.188 40.9979 139.959 39.3579 139.502V140.532C39.6325 143.369 38.557 146.443 37.9849 147.625C39.0833 150.554 39.663 156.702 39.8156 159.41C40.4563 166 39.0147 175.352 38.2138 179.204C37.39 184.879 33.7516 186.145 32.0353 186.069C26.6349 186.252 25.7425 181.569 25.9713 179.204C28.1681 172.431 27.802 160.058 27.3443 154.719C20.3879 152.431 18.8776 144.307 18.992 140.532V131.607L15.6739 129.204C14.2094 134.33 10.0294 134.849 8.12252 134.468L3.20266 132.98C0.0905636 130.875 -0.0772457 128.137 0.227862 127.031L4.91889 107.809C6.10881 104.514 9.3811 103.537 10.8685 103.461L16.0172 104.605Z" fill="#4285F4"/>
<path d="M39.3699 140.305C37.4249 139.81 33.3288 138.864 32.0474 137.674C30.9414 136.949 28.4547 134.836 27.3563 132.182C26.2579 129.527 25.8308 126.804 25.7545 125.774C25.6782 123.219 25.7774 117.834 26.7843 116.736C27.4708 115.63 29.5073 113.898 32.1618 115.82C32.8101 116.354 33.8551 118.109 32.8483 120.855C32.5432 122.8 32.2991 127.239 33.7636 129.436C34.2594 130.275 35.5485 132.479 36.7384 132.754C37.3486 133.021 38.7521 133.646 39.4844 133.555" stroke="#DAE8FF" stroke-width="0.859291"/>
<path d="M17.5312 122.051L19.1331 114.957H22.3367C20.2315 116.879 19.6289 121.936 19.5907 124.225L17.5312 122.051Z" fill="#DAE8FF"/>
</svg>
