<svg width="232" height="200" viewBox="0 0 232 200" fill="none" xmlns="http://www.w3.org/2000/svg">
<path d="M210.113 94.7368H83.7617V42.1053H210.113M194.319 157.895C190.13 157.895 186.113 156.231 183.151 153.27C180.189 150.309 178.525 146.293 178.525 142.105C178.525 137.918 180.189 133.902 183.151 130.94C186.113 127.979 190.13 126.316 194.319 126.316C198.508 126.316 202.525 127.979 205.487 130.94C208.449 133.902 210.113 137.918 210.113 142.105C210.113 146.293 208.449 150.309 205.487 153.27C202.525 156.231 198.508 157.895 194.319 157.895ZM99.5556 157.895C95.3668 157.895 91.3495 156.231 88.3876 153.27C85.4257 150.309 83.7617 146.293 83.7617 142.105C83.7617 137.918 85.4257 133.902 88.3876 130.94C91.3495 127.979 95.3668 126.316 99.5556 126.316C103.744 126.316 107.762 127.979 110.724 130.94C113.686 133.902 115.35 137.918 115.35 142.105C115.35 146.293 113.686 150.309 110.724 153.27C107.762 156.231 103.744 157.895 99.5556 157.895ZM62.7031 147.368C62.7031 156.632 66.8095 164.947 73.2324 170.737V189.474C73.2324 192.265 74.3417 194.943 76.3164 196.917C78.291 198.891 80.9691 200 83.7617 200H94.291C97.0835 200 99.7617 198.891 101.736 196.917C103.711 194.943 104.82 192.265 104.82 189.474V178.947H189.054V189.474C189.054 192.265 190.164 194.943 192.138 196.917C194.113 198.891 196.791 200 199.584 200H210.113C212.906 200 215.584 198.891 217.558 196.917C219.533 194.943 220.642 192.265 220.642 189.474V170.737C227.065 164.947 231.172 156.632 231.172 147.368V42.1053C231.172 5.26316 193.477 0 146.937 0C100.398 0 62.7031 5.26316 62.7031 42.1053V147.368Z" fill="#6D6D6D"/>
<ellipse cx="110.455" cy="70.2991" rx="10.8108" ry="10.8108" fill="#6D6D6D"/>
<path d="M110.432 86.8594C115.879 86.8594 120.705 88.0161 124.09 89.7822C127.578 91.6024 129.004 93.7404 129.004 95.5215C129.004 97.3027 127.579 99.4414 124.09 101.262C120.705 103.028 115.879 104.185 110.432 104.185C104.984 104.185 100.158 103.028 96.7734 101.262C93.2845 99.4414 91.8594 97.3026 91.8594 95.5215C91.8595 93.7404 93.2848 91.6024 96.7734 89.7822C100.158 88.0161 104.984 86.8594 110.432 86.8594Z" stroke="#6D6D6D" stroke-width="4.29646"/>
<path d="M87.7031 98.0087C96.0365 89.6753 112.703 79.248 131.453 98.0204" stroke="#6D6D6D" stroke-width="0.429646"/>
<circle cx="12.5857" cy="12.5857" r="12.5857" transform="matrix(-1 0 0 1 25.3164 86.1055)" fill="#6D6D6D"/>
<path d="M38.0453 104.605C36.0316 105.154 34.6891 107.427 34.2696 108.495L27.8623 108.838C19.5329 109.113 15.8487 115.131 15.0478 118.106C13.8579 121.584 14.0944 125.581 14.3613 127.145L14.7046 133.209C14.7427 133.514 14.819 134.147 14.819 134.239C14.819 134.33 12.7595 134.658 11.7298 134.811C9.80759 135.085 9.55588 136.68 9.67029 137.442C9.76183 140.188 13.0646 139.959 14.7046 139.502V140.532C14.43 143.369 15.5055 146.443 16.0776 147.625C14.9792 150.554 14.3995 156.702 14.2469 159.41C13.6062 166 15.0478 175.352 15.8487 179.204C16.6725 184.879 20.3109 186.145 22.0272 186.069C27.4276 186.252 28.32 181.569 28.0912 179.204C25.8944 172.431 26.2605 160.058 26.7182 154.719C33.6746 152.431 35.1849 144.307 35.0705 140.532V131.607L38.3886 129.204C39.8531 134.33 44.0331 134.849 45.94 134.468L50.8598 132.98C53.9719 130.875 54.1397 128.137 53.8346 127.031L49.1436 107.809C47.9537 104.514 44.6814 103.537 43.194 103.461L38.0453 104.605Z" fill="#6D6D6D"/>
<path d="M14.6926 140.305C16.6376 139.81 20.7337 138.864 22.0151 137.674C23.1211 136.949 25.6078 134.836 26.7062 132.182C27.8046 129.527 28.2317 126.804 28.308 125.774C28.3843 123.219 28.2851 117.834 27.2782 116.736C26.5917 115.63 24.5552 113.898 21.9007 115.82C21.2524 116.354 20.2074 118.109 21.2142 120.855C21.5193 122.8 21.7634 127.239 20.2989 129.436C19.8031 130.275 18.514 132.479 17.3241 132.754C16.7139 133.021 15.3104 133.646 14.5781 133.555" stroke="#F0F0F0" stroke-width="0.859291"/>
<path d="M36.5312 122.051L34.9294 114.957H31.7258C33.831 116.879 34.4336 121.936 34.4718 124.225L36.5312 122.051Z" fill="#F0F0F0"/>
</svg>
